<svg xmlns="http://www.w3.org/2000/svg" viewBox="0 0 120 120" width="100%" height="100%">
  <defs>
    <linearGradient id="goldFav" x1="0%" y1="0%" x2="100%" y2="100%">
      <stop offset="0%" stop-color="#FDE68A"/>
      <stop offset="50%" stop-color="#F59E0B"/>
      <stop offset="100%" stop-color="#B45309"/>
    </linearGradient>
    <linearGradient id="bgEm" x1="0%" y1="0%" x2="100%" y2="100%">
      <stop offset="0%" stop-color="#04392A"/>
      <stop offset="100%" stop-color="#011C16"/>
    </linearGradient>
  </defs>
  <rect width="120" height="120" rx="28" fill="url(#bgEm)"/>
  <rect x="3" y="3" width="114" height="114" rx="25" fill="none" stroke="url(#goldFav)" stroke-width="1.5" opacity="0.5"/>
  <g transform="translate(2, 2)">
    <path d="M 25 20 L 52 20 C 85 20 102 38 102 60 C 102 82 85 100 52 100 L 25 100 Z M 38 32 L 38 88 L 50 88 C 73 88 88 74 88 60 C 88 46 73 32 50 32 Z" fill="url(#goldFav)"/>
    <path d="M 115 42 C 105 30 88 24 72 24 C 40 24 22 46 22 72 C 22 98 42 116 75 116 C 96 116 112 106 120 90 L 106 82 C 100 94 88 102 74 102 C 50 102 36 86 36 72 C 36 56 48 38 72 38 C 84 38 96 44 104 54 Z" fill="url(#goldFav)" opacity="0.95"/>
  </g>
</svg>
